<?xml version="1.0" encoding="UTF-8"?><svg id="Capa_2" xmlns="http://www.w3.org/2000/svg" viewBox="0 0 936.19 143.93"><defs><style>.cls-1{fill:#fff;}</style></defs><g id="Capa_1-2"><path class="cls-1" d="M94.17.94h2.13l-23.54,70.63h-2.13L48.15,4.13l-22.48,67.44h-2.13L0,.94h2.13l22.48,67.92L47.08.94h2.13l22.48,67.92L94.17.94Z"/><path class="cls-1" d="M211.55,71.56l-6.58-18.25h-35.56l-6.58,18.25h-2.23L186.13.94h2.1l25.44,70.63h-2.13ZM170,51.44h34.38L187.19,3.52l-17.19,47.92Z"/><path class="cls-1" d="M288.45,69.69h28.25v1.88h-30.15V.94h1.9v68.75Z"/><path class="cls-1" d="M389.57,71.56V.94h16.48c4.86,0,9.43.93,13.71,2.77,4.28,1.85,8.03,4.39,11.25,7.6,3.22,3.21,5.75,6.95,7.58,11.23,1.84,4.28,2.77,8.85,2.77,13.71s-.93,9.43-2.77,13.71c-1.83,4.28-4.36,8.03-7.58,11.25-3.22,3.21-6.97,5.74-11.25,7.58-4.28,1.85-8.85,2.77-13.71,2.77h-16.48ZM391.47,69.69h14.58c4.64,0,8.97-.86,13-2.58,4.04-1.73,7.59-4.13,10.65-7.19,3.07-3.07,5.46-6.63,7.19-10.67,1.73-4.04,2.6-8.38,2.6-13s-.87-8.96-2.6-13c-1.72-4.04-4.12-7.59-7.19-10.65-3.06-3.07-6.6-5.46-10.65-7.19-4.03-1.73-8.36-2.6-13-2.6h-14.58v66.88Z"/><path class="cls-1" d="M568.15.94h1.9v70.63h-1.9v-34.38h-46.13v34.38h-1.9V.94h1.9v34.38h46.13V.94Z"/><path class="cls-1" d="M693.77,71.56l-6.58-18.25h-35.56l-6.58,18.25h-2.23L668.36.94h2.1l25.44,70.63h-2.13ZM652.23,51.44h34.38l-17.19-47.92-17.19,47.92Z"/><path class="cls-1" d="M792.9,72.5c-4.47,0-8.57-1.09-12.29-3.29-3.72-2.19-6.69-5.15-8.9-8.88-2.2-3.73-3.29-7.84-3.29-12.31V.94h1.9v47.08c0,4.16,1,7.94,3,11.35s4.7,6.15,8.1,8.19c3.42,2.04,7.24,3.06,11.48,3.06s7.95-1.02,11.35-3.06c3.42-2.04,6.15-4.77,8.19-8.19s3.06-7.2,3.06-11.35V.94h1.9v47.08c0,4.47-1.1,8.58-3.31,12.31-2.2,3.72-5.14,6.68-8.83,8.88-3.68,2.2-7.8,3.29-12.35,3.29Z"/><path class="cls-1" d="M915.11,72.5c-5.17,0-9.68-1.29-13.52-3.88-3.85-2.59-6.48-5.73-7.9-9.42l1.77-.58c1.25,3.21,3.6,6.02,7.06,8.42,3.46,2.39,7.69,3.58,12.71,3.58,3.38,0,6.49-.6,9.35-1.81,2.88-1.22,5.21-3.01,7-5.35,1.8-2.36,2.71-5.23,2.71-8.6s-.91-6.28-2.71-8.48c-1.79-2.19-4.08-4.05-6.88-5.58-2.79-1.54-5.78-2.98-8.96-4.31-3.17-1.33-6.17-2.8-9-4.4-2.82-1.61-5.11-3.63-6.88-6.06-1.77-2.44-2.65-5.55-2.65-9.31s.94-7.09,2.81-9.52c1.89-2.44,4.24-4.25,7.06-5.42,2.83-1.18,5.66-1.77,8.48-1.77,3.76,0,7.11.81,10.06,2.42,2.94,1.6,5.2,3.46,6.77,5.58l-1.52,1.19c-1.33-1.89-3.34-3.57-6.02-5.06-2.67-1.5-5.72-2.25-9.17-2.25-2.67,0-5.28.54-7.83,1.6-2.56,1.06-4.66,2.68-6.31,4.88-1.64,2.2-2.46,4.98-2.46,8.35s.88,6.31,2.65,8.54c1.76,2.24,4.05,4.12,6.88,5.65,2.83,1.53,5.84,2.96,9.02,4.29,3.18,1.33,6.16,2.81,8.94,4.42,2.79,1.61,5.09,3.62,6.9,6.02,1.8,2.39,2.71,5.47,2.71,9.23,0,4.08-1.06,7.42-3.19,10-2.11,2.58-4.78,4.51-8,5.77-3.22,1.25-6.52,1.88-9.9,1.88Z"/><path class="cls-1" d="M305.98,133.51l6.54,10.13h-2.71l-6.27-10h-4.17v10h-2.38v-22.17h7.94c1.14,0,2.17.28,3.1.83.94.56,1.69,1.31,2.23,2.25.55.93.83,1.97.83,3.13,0,.99-.23,1.91-.69,2.75-.45.83-1.05,1.52-1.81,2.06-.77.54-1.64.89-2.63,1.02ZM299.37,131.39h5.42c1.14,0,2.08-.34,2.83-1.04.75-.69,1.13-1.6,1.13-2.73s-.39-2.01-1.15-2.71c-.77-.71-1.7-1.06-2.81-1.06h-5.42v7.54Z"/><path class="cls-1" d="M346.87,123.76h-9.75v7.65h8.48v2.29h-8.48v7.65h9.75v2.29h-12.13v-22.17h12.13v2.29Z"/><path class="cls-1" d="M376.38,143.93c-1.66,0-3.13-.41-4.42-1.23-1.29-.83-2.22-1.92-2.79-3.27l2.15-1.25c.4,1,1.03,1.82,1.9,2.46.88.63,1.94.94,3.21.94s2.26-.32,3.13-.96c.88-.64,1.31-1.55,1.31-2.75,0-.9-.27-1.64-.79-2.21-.52-.58-1.19-1.07-2.02-1.46-.82-.4-1.69-.78-2.6-1.15-.91-.36-1.77-.78-2.6-1.27-.82-.48-1.49-1.1-2-1.85-.52-.76-.77-1.73-.77-2.92s.28-2.23.83-3.1c.55-.88,1.3-1.55,2.23-2.02.93-.47,1.96-.71,3.1-.71,1.28,0,2.42.27,3.44.81,1.03.53,1.85,1.18,2.48,1.96l-1.85,1.56c-.92-1.3-2.25-1.96-4-1.96-1.03,0-1.93.27-2.71.81-.78.54-1.17,1.37-1.17,2.48,0,.88.26,1.58.77,2.13.53.54,1.2,1.01,2.02,1.4.83.38,1.7.74,2.6,1.1.92.36,1.78.79,2.6,1.29.83.5,1.51,1.16,2.02,1.96.51.81.77,1.83.77,3.08s-.31,2.39-.94,3.31c-.61.92-1.44,1.62-2.48,2.1-1.03.47-2.17.71-3.42.71Z"/><path class="cls-1" d="M406.18,143.64v-22.17h2.38v22.17h-2.38Z"/><path class="cls-1" d="M433.11,143.64v-22.17h6.06c1.53,0,2.96.29,4.29.88,1.34.58,2.53,1.39,3.54,2.4,1.01,1,1.8,2.18,2.38,3.52.58,1.33.88,2.77.88,4.29s-.29,2.97-.88,4.31c-.57,1.33-1.36,2.51-2.38,3.52-1.02,1.02-2.2,1.81-3.54,2.4-1.33.57-2.77.85-4.29.85h-6.06ZM435.45,141.28h3.69c1.65,0,3.14-.38,4.46-1.15,1.32-.76,2.36-1.8,3.13-3.13.78-1.32,1.17-2.8,1.17-4.46s-.39-3.15-1.17-4.46c-.77-1.3-1.81-2.34-3.13-3.1-1.32-.76-2.81-1.15-4.46-1.15h-3.69v17.44Z"/><path class="cls-1" d="M486.09,123.76h-9.75v7.65h8.48v2.29h-8.48v7.65h9.75v2.29h-12.13v-22.17h12.13v2.29Z"/><path class="cls-1" d="M525.92,121.47h2.33v22.17h-2.21l-13.67-18.21v18.21h-2.38v-22.17h2.23l13.69,18.21v-18.21Z"/><path class="cls-1" d="M563.16,143.93c-1.58,0-3.06-.29-4.42-.88-1.36-.59-2.57-1.42-3.63-2.46-1.04-1.05-1.86-2.26-2.46-3.63-.58-1.36-.88-2.83-.88-4.42s.29-3.03.88-4.4c.59-1.38,1.42-2.58,2.46-3.63,1.05-1.05,2.26-1.88,3.63-2.46,1.36-.59,2.83-.9,4.42-.9,2.11,0,4.04.54,5.79,1.6,1.75,1.06,3.11,2.45,4.1,4.17l-2.04,1.15c-.77-1.38-1.84-2.47-3.23-3.29-1.39-.83-2.93-1.25-4.63-1.25s-3.17.41-4.54,1.21c-1.36.79-2.45,1.88-3.27,3.25-.81,1.36-1.21,2.88-1.21,4.54s.4,3.21,1.21,4.58c.82,1.36,1.91,2.45,3.27,3.25,1.38.79,2.89,1.19,4.54,1.19s3.23-.42,4.63-1.25c1.39-.84,2.46-1.94,3.23-3.29l2.04,1.15c-.99,1.72-2.35,3.11-4.1,4.17-1.75,1.06-3.68,1.58-5.79,1.58Z"/><path class="cls-1" d="M608.29,123.76h-9.75v7.65h8.48v2.29h-8.48v7.65h9.75v2.29h-12.13v-22.17h12.13v2.29Z"/><path class="cls-1" d="M637.8,143.93c-1.66,0-3.13-.41-4.42-1.23-1.29-.83-2.22-1.92-2.79-3.27l2.15-1.25c.4,1,1.03,1.82,1.9,2.46.88.63,1.94.94,3.21.94s2.26-.32,3.13-.96c.88-.64,1.31-1.55,1.31-2.75,0-.9-.27-1.64-.79-2.21-.52-.58-1.19-1.07-2.02-1.46-.82-.4-1.69-.78-2.6-1.15-.91-.36-1.77-.78-2.6-1.27-.82-.48-1.49-1.1-2-1.85-.52-.76-.77-1.73-.77-2.92s.28-2.23.83-3.1c.55-.88,1.3-1.55,2.23-2.02.93-.47,1.96-.71,3.1-.71,1.28,0,2.42.27,3.44.81,1.03.53,1.85,1.18,2.48,1.96l-1.85,1.56c-.92-1.3-2.25-1.96-4-1.96-1.03,0-1.93.27-2.71.81-.78.54-1.17,1.37-1.17,2.48,0,.88.26,1.58.77,2.13.53.54,1.2,1.01,2.02,1.4.83.38,1.7.74,2.6,1.1.92.36,1.78.79,2.6,1.29.83.5,1.51,1.16,2.02,1.96.51.81.77,1.83.77,3.08s-.31,2.39-.94,3.31c-.61.92-1.44,1.62-2.48,2.1-1.03.47-2.17.71-3.42.71Z"/></g></svg>