<?xml version="1.0" encoding="UTF-8"?>
<svg version="1.1" viewBox="0 0 1580 1388" width="395" height="347" xmlns="http://www.w3.org/2000/svg">
<path transform="translate(304,92)" d="m0 0h1209l3 3 1 362v522l-1 256-1 7-4 3-620 1h-214l-482-1-14-2-20-6-18-8-14-8-11-9-12-12-13-17-7-10-8-16-6-20-3-15v-22l4-24 7-32 13-52 19-83 17-74 7-33 7-32 7-27 6-23 11-49 18-77 15-66 7-31 10-38 10-45 13-57 16-64 7-29 8-37 18-78 8-36 5-20zm140 4-63 1h-70l-3 9-15 67-13 49-13 52-14 64-9 43-12 49-11 45-8 34-7 26-13 64-12 53-16 64-1 10 23 7 42 10h5l3-9 13-53 11-47 12-45 4-9 9-1h84l4-2 1-2 1-390 3-5 4-1h37l162 1 45-1 30-2 1-8v-17l-1-53-1-2-132-1zm453 0-44 1-2 7v72l4 1 30 2 45 1h322l102-1 8 1 1 161 1 1 49 1 8 1 1 4v130l1 34 5 1 77-1 3-1 1-9v-404l-1-1-153-1zm-230 1-2 1-1 8v68l1 4 6 1h168l4-2 2-9-1-70-1-1zm-258 87-22 1-4 3-1 4-1 335-1 57-88 1-9 1-5 5-9 37-13 59-9 40-2 10v6l2 1 158 1h178l5-3 1-9 1-184 1-38 2-1 19-1 46-1v-324zm484 0-40 1-2 1-1 299v114l1 5 27 1h127l24-1 4-1 1-90 383-1v-162l-51-1-7-1-1-4-1-153-1-6-177-1zm-296 329-1 2v294l2 3 6 1 47 1 6-2 1-8 1-63h380v73l3 3h5l-1 4-6 1-1 39v291l3 1h44l247-1 1-4 1-153 1-3 75-1 6-2 1-160-1-5-11-1-351-1-1-2h-5l11-2 11-1 28-1 2-2v-296l-1-1h-59l-1 2-1 39v50h-190l-189-1-2-94zm827 4-1 2v295l1 2 11 1 70-1 4-1v-297l-1-1zm-32 0-282 1-2 7-1 281 2 10h307l1-1v-192l1-105-1-1zm-1230 214-3 7-8 32-8 37-11 55-11 46-6 25-19 74-9 36-9 43-2 11v23l3 17 5 17 7 16 7 12 8 10 15 15 15 11 16 8 24 8 15 3 11 1 98 1h356l2-4 1-65-1-12-1-1-27-1h-315l-26-1-1-5-1-17 1-76v-113l-4-2h-83l-10-1 1-10 7-39 6-22 10-35 7-29 9-44 2-11-10-4-60-16zm506 13-4 1-1 8v399h183l1-33v-368l-2-5-1-1-109-1zm188 0-4 1-1 2-1 403 1 2 3 1h32l146-1 1-12v-394l-4-1zm-613 7-4 8-11 53-6 22-10 42-8 30-4 20v6l8 3h80l5 1 3 7v49l-1 74v79l2 5 1 1 7 1h348l4-1 1-14v-314l-1-2-18-1h-26l-17-1-4-2-1-2-1-9-1-43-2-10-4-2zm1221 72-38 1-3 5-1 165-1 2-3 1-66 1-7 3-4 6v145l-1 2-3 1-246 1-50 1-1 1-1 14v61l3 5 6 2h10l12-1h438l1-2v-413l-1-1zm-737 333-63 1-1 1-1 9 1 71 1 1h176l5-1 1-2 1-37v-40l-1-2-39-1zm193 0-69 1-1 17 1 66 53-1 127-1 2-2 1-8 1-59-1-11-2-1-43-1z" fill="#FDFDFD"/>
<path transform="translate(664,184)" d="m0 0h182l1 1v98l-1 320-79 1h-90l-13-1-1-373v-45z" fill="#FEFEFE"/>
<path transform="translate(304,92)" d="m0 0h461v1l-166 1h-88l131 1 17-1 1 3v83l-14 1-84 1h-71l135 1 19 1v1h-236l-22 1-3 2-1 4-1 335-1 57-1 1-88 1-9 1-4 4-9 37-13 59-9 40-3 16 160 1h178l4-2 1-9 1-184 1-38 3-2 19-1h43v1l-35 1 30 1 7 1v1h-60v296l1 2 6 1 47 1 6-1 1-71 1-1h380l1 1v75l7 1-1 5h-6v39l-1 291-5 1-2-1v-267l1-139-181-1-1 407 3 1h-6l-2 1 2 1 1 23-1 14h-1l-1-35h-119l-63 1-1 9 1 71 18 1v1h-27l2-5 1-65-1-12-27-1h-315l-24-1-3-3-1-3-1-17 1-76v-113l-3-1h-83l-10-1-1-1 1-10 7-39 6-22 10-35 7-29 9-44 2-11-20-6-49-13-2 3-8 30-9 42-11 55-11 46-6 25-19 74-9 36-9 43-2 11v23l3 17 5 17 7 16 7 12 8 10 14 14 15 11 16 8 24 8 15 3 11 1 98 1 58 1v1l-19 1h-36l-36 1-1 1h79l1 2h-151l-14-2-20-6-18-8-14-8-11-9-12-12-13-17-7-10-8-16-6-20-3-15v-22l4-24 7-32 13-52 19-83 17-74 7-33 7-32 7-27 6-23 11-49 18-77 15-66 7-31 10-38 10-45 13-57 16-64 7-29 8-37 18-78 8-36 5-20zm140 4-63 1h-70l-3 9-15 67-13 49-13 52-14 64-9 43-12 49-11 45-8 34-7 26-13 64-12 53-16 64-1 10 23 7 42 10h5l3-9 13-53 11-47 12-45 4-9 9-1h84l4-2 1-2 1-390 3-5 4-1h37l162 1 45-1 30-2 1-8v-17l-1-53-1-2-132-1zm224 648-4 1-1 8v399h183l1-33v-368l-2-5-1-1-109-1zm-425 7-4 8-11 53-6 22-10 42-8 30-4 20v6l8 3h80l5 1 3 7v49l-1 74v79l2 5 1 1 7 1h348l4-1 1-14v-314l-1-2-18-1h-26l-17-1-4-2-1-2-1-9-1-43-2-10-4-2z" fill="#FDFDFD"/>
<path transform="translate(850,751)" d="m0 0h1v401l3 1h-6l-2 1 2 1 1 23-1 14h-1l-1-35h-119l-63 1-1 9 1 71 18 1v1h-27l2-5 1-65-1-12-27-1h-315l-24-1-3-3-1-3-1-17 1-76v-113l-3-1h-83l-10-1-1-1 1-10 7-39 6-22 10-35 7-29 9-44 1-3h7l1 5-10 48-6 22-10 42-8 30-5 26 8 2h80l6 2 3 7v49l-1 74v79l2 5 7 1h352l1-327 1 3 4-2v327h183v-333l1-20h2v-32z" fill="#FDFDFD"/>
<path transform="translate(511,93)" d="m0 0h388l26 1v1l-74 1v84l9 1 25 1v1l-10 1h-25l1 8v412l187 1-3 3h-375l-1-1-2-94-7-1-31-1 1-2 38-1-1-233v-57l1-34h-35l-143-1v-1l11-1h88l81-1-1-66v-17l-1-2-21 1-128-1zm156 4-2 1-1 8v68l1 4 6 1h168l4-2 2-9-1-70-1-1zm-3 87-1 1v45l1 373 13 1h90l79-1 1-320v-98l-1-1z" fill="#D9D9D9"/>
<path transform="translate(797,92)" d="m0 0h714v1l-151 1 129 1 18 1v1h-654l-1 7-1 72 34 2 45 1h322l102-1 8 1 1 1 1 161 49 1 8 1 2 5v164h-6v-162h-51l-7-1-2-5-1-159h-463l-42 1v6h-1v-8l25-1-24-2-1-4v-81l1-1 48-1h-41l-61-1z" fill="#FDFDFD"/>
<path transform="translate(1034,512)" d="m0 0h381v1l-55 1h-274l10 1 5-1 2 1 1 8 1-8 310-1 3 1-1 3-307 1-1 6-1 281 1 10h306l2 3v5l-348-1-14-1-1-1h-6l1-2 11-2 11-1 28-1 1-1v-296l-59-1-2 91-2 1h-188v-1l9-1h177l2-1-32-1v-1l28-1v-90z" fill="#FDFDFD"/>
<path transform="translate(508,92)" d="m0 0h257v1l-166 1h-88l131 1 17-1 1 3v83l-14 1-84 1h-71l135 1 19 1v1h-236l-22 1-3 2-1 4-1 335-1 57-4 1 2-7-9 1 4-4 1-390 3-5 5-2h37l162 1 45-1 30-1v-25l-1-55h-132l-28-1v-1l12-1z" fill="#FDFDFD"/>
<path transform="translate(848,1152)" d="m0 0 27 2v1l-24 1v84h25v2l30-1 94-1 38-2 10 1 3 3-1 1-16 1h-26l-1 1-116 1h-214l-331-1-5-1h-77l-3-2 10-1 32-1h40l15-1h324l108-1h55l1-39 2-21v-23l-6-1v-1z" fill="#FBFBFB"/>
<path transform="translate(752,344)" d="m0 0h8l5 5 4 8 8 24 14 41 2 7v4l-2 1h-13l-4-3-4-14-2-2h-29l-3 6-3 10-5 3h-8l-4-2v-6l15-39 7-18 7-22z" fill="#D8D8D8"/>
<path transform="translate(850,751)" d="m0 0h1v401l3 1h-6l-2 1 2 1 1 23-1 14h-1l-1-35h-119l-63 1-1 9 1 71 18 1v1h-27l2-5 1-65-1-12-4-2 1-1h5 3l36-1h-17l-18-1v-1h183v-333l1-20h2v-32z" fill="#FDFDFD"/>
<path transform="translate(797,92)" d="m0 0h714v1l-151 1 129 1 18 1v1h-654l-1 7-1 72h-1v-80l1-1 48-1h-41l-61-1z" fill="#FEFEFE"/>
<path transform="translate(1066,1238)" d="m0 0h401l40 1v1l-10 1h-21l-31 1 11 1 38 1v1h-487l1-2h31l11-1-1-2z" fill="#FEFEFE"/>
<path transform="translate(72,1080)" d="m0 0 5 2 2-1-1 9-1 7v23l3 17 5 17 7 16 7 12 8 10 14 14 15 11 16 8 24 8 15 3 11 1 98 1 58 1v1l-19 1h-36l-36 1-1 1h79l1 2h-151l-14-2-20-6-18-8-14-8-11-9-12-12-13-17-7-10-8-16-6-20-3-15v-22z" fill="#FDFDFD"/>
<path transform="translate(1029,745)" d="m0 0h5l2 7 1 71 1 3-1 1v96l1-70 1-39 1 2 7 1-1 5h-6v39l-1 291-5 1-2-1v-267l1-139z" fill="#FDFDFD"/>
<path transform="translate(1424,515)" d="m0 0m-2 1h2l-1 297-4 3-3-1v-192l1-90 1-8 2 4v8l-1 1 2 1-1-20z" fill="#FDFDFD"/>
<path transform="translate(658,824)" d="m0 0 1 3 4-2v327h-10l4-1z" fill="#FDFDFD"/>
<path transform="translate(846,94)" d="m0 0 2 1v75l-1 10-4 1h-163l-18-1-1-28v-38l1-18 5-1h165zm-179 3-2 1-1 8v68l1 4 6 1h168l4-2 2-9-1-70-1-1z" fill="#FEFEFE"/>
<path transform="translate(508,92)" d="m0 0h257v1l-166 1h-88l131 1 17-1 1 3v83l-14 1h-65l1-2 45-1 30-1v-25l-1-55h-132l-28-1v-1l12-1z" fill="#FEFEFE"/>
<path transform="translate(1415,512)" d="m0 0h97l1 3-1 2h-2l-1-2h-25l-47 1h-13l-3 3v20l-3-1 1-4-1-9v-10h-313v8l-2 1v-9l-6-1-1 2-16-1v-1l6-1h274z" fill="#D8D8D8"/>
<path transform="translate(1012,740)" d="m0 0h27l1 1-1 112-1 70-1 5h-1v-101l1-2-1-6-1-67-1-6-14-2-94-1-14-1v-1z" fill="#D8D8D8"/>
<path transform="translate(1036,1238)" d="m0 0 12 1 3 3-1 1-16 1h-28l-135-1v-2l-7 1v1h-156v-1l28-1 78-1 36-1 26 1v2l30-1 94-1z" fill="#D8D8D8"/>
<path transform="translate(883,1152)" d="m0 0h147v1l-28 1h31l3 2v14l-2-1v-11l-45-1h-138v13h-1v-14l1-1 7-1v-1z" fill="#FCFCFC"/>
<path transform="translate(511,93)" d="m0 0h336l-1 2-23 1h-160l-1 21-1 35h-1l-1-38v-17l-1-2-21 1-128-1z" fill="#D8D8D8"/>
<path transform="translate(653,183)" d="m0 0h6l1 3v322h-2l-1-233v-57l1-34h-5z" fill="#FEFEFE"/>
<path transform="translate(816,740)" d="m0 0h162v1l-52 1 94 1 8 1v1h-156l-13-2v-1l-43-1z" fill="#FDFDFD"/>
<path transform="translate(1476,1240)" d="m0 0h34l1 3-17 1-403-1v-1l354-1z" fill="#D8D8D8"/>
<path transform="translate(904,1238)" d="m0 0h125v1l-5 1-25 1-93 1h-30v-2l-4 1-20-1v-1z" fill="#FEFEFE"/>
<path transform="translate(848,1152)" d="m0 0 27 2v1l-24 1v84h-13l2-2h5l1-39 2-21v-23l-6-1v-1z" fill="#FAFAFA"/>
<path transform="translate(608,1152)" d="m0 0h55l18 1h30l-4 2-45 1-4 1-4-1-1 1h-23l-61-2v-1z" fill="#FBFBFB"/>
<path transform="translate(743,741)" d="m0 0h124l-3 3-12 1-1 6-1 16-1 32h-1l-1-55-1-1-10 1h-86-1l-1-2h-5z" fill="#D8D8D8"/>
<path transform="translate(1360,93)" d="m0 0h151l1 2-1 10h-1v-7l-3-1-18-1-141-1v-1z" fill="#D8D8D8"/>
<path transform="translate(1415,512)" d="m0 0h97l1 3-1 2h-2l-1-2h-25l-47 1h-13l-3 3v20l-3-1 1-4-1-9v-10l-4-1z" fill="#E3E3E3"/>
<path transform="translate(634,1240)" d="m0 0h49v1l-7 1-1 1h-160l1-2h35z" fill="#D8D8D8"/>
<path transform="translate(303,1240)" d="m0 0h55v3l-17 1h-77l-3-2 10-1z" fill="#D8D8D8"/>
<path transform="translate(753,372)" d="m0 0 3 1 4 12 1 11-1 1h-13l-2-5 6-16z" fill="#FEFEFE"/>
<path transform="translate(1509,992)" d="m0 0 1 3 2 1v68l-1 12-2 1-1-21z" fill="#D8D8D8"/>
<path transform="translate(846,742)" d="m0 0 2 2v55h-1l-1-48-2-5-95-1v-1l5-1h87z" fill="#FEFEFE"/>
<path transform="translate(1038,826)" d="m0 0h1v27l-1 70-1 5h-1v-100z" fill="#D8D8D8"/>
<path transform="translate(1030,1152)" d="m0 0h12l4 1 25 1v1h-33v8l-1 3 3 1-2 5h-2l-1-16-6-1h-27l-1-2z" fill="#D8D8D8"/>
<path transform="translate(1039,814)" d="m0 0 1 2 7 1-1 5h-6v39l-1 61h-1v-69z" fill="#FEFEFE"/>
<path transform="translate(1015,740)" d="m0 0h24l1 1-1 62-1 5h-1v-66l-22-1z" fill="#FEFEFE"/>
<path transform="translate(239,743)" d="m0 0 4 1-1 7-2 8-4 1-4-1v-10l-2-1h2l2-4z" fill="#DBDBDB"/>
<path transform="translate(847,741)" d="m0 0h20l-3 3-12 1-1 6-1 16-1 32h-1z" fill="#DEDEDE"/>
<path transform="translate(647,1152)" d="m0 0h16l18 1h30l-4 2-45 1-4 1v-1h-9l-11-1v-1z" fill="#D8D8D8"/>
<path transform="translate(848,1152)" d="m0 0 27 2v1l-24 1v16l-1 16-2 4v-37l-6-1v-1z" fill="#D8D8D8"/>
<path transform="translate(1503,512)" d="m0 0h9l1 3-1 2h-2l-1-2h-43l1-2h20z" fill="#D8D8D8"/>
<path transform="translate(1420,814)" d="m0 0h2v14l-4 2-1-1-1-10-1-3z" fill="#DADADA"/>
<path transform="translate(374,578)" d="m0 0h5v5l-7 1-8-1 2-1v-2z" fill="#D8D8D8"/>
<path transform="translate(589,1153)" d="m0 0h19l-1 2-8 1-30-1v-1z" fill="#D8D8D8"/>
<path transform="translate(590,744)" d="m0 0 4 1v10h-3l-5-10z" fill="#D8D8D8"/>
<path transform="translate(1419,345)" d="m0 0h1v27l-2 1-1-25z" fill="#D8D8D8"/>
<path transform="translate(660,809)" d="m0 0 2 3v13l-1 2h-2l-1-11z" fill="#D8D8D8"/>
<path transform="translate(1036,1210)" d="m0 0h1l1 20 1 5-2 2-2-3z" fill="#D8D8D8"/>
<path transform="translate(850,741)" d="m0 0h17l-3 3h-8l-6-1z" fill="#D8D8D8"/>
</svg>
