<?xml version="1.0" encoding="utf-8"?>
<!-- Generator: Adobe Illustrator 28.3.0, SVG Export Plug-In . SVG Version: 6.00 Build 0)  -->
<svg version="1.1" id="Capa_1" xmlns="http://www.w3.org/2000/svg" xmlns:xlink="http://www.w3.org/1999/xlink" x="0px" y="0px"
	 viewBox="0 0 797.1 636.9" style="enable-background:new 0 0 797.1 636.9;" xml:space="preserve">
<style type="text/css">
	.st0{fill:none;stroke:#000000;stroke-width:0.5;stroke-miterlimit:10;}
</style>
<g>
	<path class="st0" d="M704.8,74.1V563H149.4c0,0-19.5,1.4-39.3-15.6s-17.8-41.2-17.7-43.3c0.1-2,0.2-6.1,1.4-10.9s98-419.3,98-419.3
		L704.8,74.1z"/>
	<polyline class="st0" points="128.7,344 162.5,352.7 314.2,352.6 314.2,381.5 342.8,381.5 342.8,350.2 502.7,350.2 502.7,383.1 
		704.8,383.1 704.8,253.6 502.9,253.6 502.9,292.9 342.8,292.9 342.8,251.7 314.3,251.7 314.1,352.6 	"/>
	<polygon class="st0" points="640.7,112.1 640.7,181.4 666.8,181.4 666.8,456.8 631.3,456.8 631.3,525.1 185.1,525.1 185.1,434.3 
		143.6,434.3 178.9,282.3 222.3,282.3 222.5,112.1 	"/>
	<polyline class="st0" points="422.8,350.2 422.8,525 422.8,562.9 342.8,562.9 342.8,525 342.8,381.5 342.8,350.2 	"/>
	<polyline class="st0" points="342.8,292.9 342.8,251.7 342.8,112.1 342.8,74 342.8,73.9 422.8,73.9 422.8,74 422.8,112.1 
		422.8,292.9 	"/>
	<line class="st0" x1="531.1" y1="383.1" x2="531.1" y2="253.6"/>
	<line class="st0" x1="502.7" y1="563" x2="502.7" y2="383.1"/>
</g>
</svg>
