<?xml version="1.0" encoding="UTF-8"?>
<svg id="Capa_2" data-name="Capa 2" xmlns="http://www.w3.org/2000/svg" viewBox="0 0 612.98 489.54">
  <defs>
    <style>
      .cls-1 {
        fill: none;
        stroke: #1d1d1b;
        stroke-miterlimit: 10;
        strokeWidth: .5px;
      }

      .cls-2 {
        fill: #c6c6c6;
        strokeWidth: 0px;
      }
    </style>
  </defs>
  <g id="Capa_1-2" data-name="Capa 1">
    <g>
      <g>
        <path class="cls-1" d="M612.73.37v488.89H57.31s-19.54,1.36-39.25-15.57S.27,432.45.32,430.42s.21-6.14,1.39-10.9S99.71.25,99.71.25l513.03.12Z"/>
        <polyline class="cls-1" points="36.61 270.33 70.42 279.01 222.09 278.9 222.09 307.77 250.72 307.77 250.72 276.56 410.62 276.56 410.62 309.41 612.73 309.41 612.73 179.91 410.78 179.91 410.78 219.18 250.72 219.18 250.72 178.04 222.19 178.04 221.98 278.9"/>
        <polygon class="cls-1" points="548.64 38.42 548.64 107.66 574.68 107.66 574.68 383.11 539.24 383.11 539.24 451.36 93.01 451.36 93.01 360.58 51.54 360.58 86.84 208.6 130.24 208.6 130.4 38.42 548.64 38.42"/>
        <polyline class="cls-1" points="330.69 276.56 330.69 451.35 330.69 489.25 250.71 489.25 250.71 451.35 250.71 307.76 250.71 276.56"/>
        <polyline class="cls-1" points="250.71 219.17 250.71 178.03 250.71 38.42 250.71 .29 250.71 .26 330.69 .26 330.69 .29 330.69 38.42 330.69 219.17"/>
        <line class="cls-1" x1="439.04" y1="309.41" x2="439.04" y2="179.91"/>
        <line class="cls-1" x1="410.59" y1="489.26" x2="410.59" y2="309.41"/>
      </g>
      <g>
        <rect class="cls-2" x="250.71" y="178.04" width=".01" height="41.13"/>
        <rect class="cls-2" x="250.71" y="276.56" width=".01" height="31.21"/>
        <rect class="cls-2" x="439.04" y="179.91" width="135.64" height="129.5"/>
        <rect class="cls-2" x="250.71" y="178.04" width=".01" height="41.13"/>
        <rect class="cls-2" x="250.71" y="276.56" width=".01" height="31.21"/>
        <rect class="cls-2" x="439.04" y="179.91" width="135.64" height="129.5"/>
        <rect class="cls-2" x="250.71" y="178.04" width=".01" height="41.13"/>
        <rect class="cls-2" x="250.71" y="276.56" width=".01" height="31.21"/>
        <rect class="cls-2" x="439.04" y="179.91" width="135.64" height="129.5"/>
        <rect class="cls-2" x="250.71" y="276.56" width=".01" height="31.21"/>
        <rect class="cls-2" x="250.71" y="178.04" width=".01" height="41.13"/>
        <polygon class="cls-2" points="330.69 .26 330.69 .3 250.71 .29 250.71 .26 330.69 .26"/>
      </g>
    </g>
  </g>
</svg>