<?xml version="1.0" encoding="UTF-8"?>
<svg id="Capa_2" data-name="Capa 2" xmlns="http://www.w3.org/2000/svg" viewBox="0 0 612.98 490.33">
  <defs>
    <style>
      .cls-1 {
        fill: none;
        stroke: #1d1d1b;
        stroke-miterlimit: 10;
        stroke-width: .5px;
      }

      .cls-2 {
        fill: #c6c6c6;
        stroke-width: 0px;
      }
    </style>
  </defs>
  <g id="Capa_1-2" data-name="Capa 1">
    <g>
      <g>
        <path class="cls-1" d="M612.73,1.16v488.89H57.31s-19.54,1.36-39.25-15.57S.27,433.24.32,431.21s.21-6.14,1.39-10.9S99.71,1.04,99.71,1.04l513.03.12Z"/>
        <polyline class="cls-1" points="36.61 271.11 70.42 279.8 222.09 279.69 222.09 308.56 250.72 308.56 250.72 277.35 410.62 277.35 410.62 310.2 612.73 310.2 612.73 180.7 410.78 180.7 410.78 219.97 250.72 219.97 250.72 178.83 222.19 178.83 221.98 279.69"/>
        <polygon class="cls-1" points="548.64 39.21 548.64 108.45 574.68 108.45 574.68 383.9 539.24 383.9 539.24 452.15 93.01 452.15 93.01 361.37 51.54 361.37 86.84 209.39 130.24 209.39 130.4 39.21 548.64 39.21"/>
        <polyline class="cls-1" points="330.69 277.35 330.69 452.14 330.69 490.04 250.71 490.04 250.71 452.14 250.71 308.55 250.71 277.35"/>
        <polyline class="cls-1" points="250.71 219.96 250.71 178.82 250.71 39.21 250.71 1.08 250.71 1.05 330.69 1.05 330.69 1.08 330.69 39.21 330.69 219.96"/>
        <line class="cls-1" x1="439.04" y1="310.2" x2="439.04" y2="180.7"/>
        <line class="cls-1" x1="410.59" y1="490.05" x2="410.59" y2="310.2"/>
      </g>
      <g>
        <polygon class="cls-2" points="574.69 309.16 574.69 382.86 539.24 382.86 539.24 451.11 410.59 451.11 410.62 309.16 574.69 309.16"/>
        <polygon class="cls-2" points="330.7 0 330.7 .05 250.72 .04 250.72 0 330.7 0"/>
      </g>
    </g>
  </g>
</svg>